<?xml version="1.0" encoding="utf-8"?>
<!DOCTYPE svg PUBLIC "-//W3C//DTD SVG 1.1//EN" "http://www.w3.org/Graphics/SVG/1.1/DTD/svg11.dtd">
<svg xmlns="http://www.w3.org/2000/svg" xmlns:xlink="http://www.w3.org/1999/xlink" version="1.1" baseProfile="full" width="70" height="70" viewBox="0 0 70.00 70.00" enable-background="new 0 0 70.00 70.00" xml:space="preserve">
	<image x="0" y="0" width="14" height="14" transform="matrix(5.00,0.00,0.00,4.99,0.00,-0.00)" xlink:href="help_files/image0.png"/>
	<path fill="#eeeeee" fill-opacity="1" stroke-linejoin="round" d="M 50.2946,26.21C 50.0999,28.1653 49.6398,29.8907 48.9143,31.3862C 48.1888,32.8817 47.238,34.1418 46.062,35.1666C 44.8859,36.1913 43.5147,36.98 41.9485,37.5325C 40.3823,38.085 38.6574,38.3956 36.7739,38.4643L 35.7735,44.8768L 28.1836,44.121L 28.8185,31.1601L 33.8449,31.6606C 34.9718,31.7728 35.9621,31.7056 36.8157,31.459C 37.6693,31.2124 38.3836,30.8332 38.9584,30.3213C 39.5331,29.8095 39.9786,29.1963 40.2947,28.4816C 40.6108,27.7669 40.8098,26.9991 40.8915,26.1781C 41.0052,25.0363 40.876,23.9494 40.504,22.9174C 40.1319,21.8855 39.4813,20.9445 38.5522,20.0945C 37.6231,19.2445 36.4094,18.5282 34.911,17.9456C 33.4126,17.363 31.5812,16.964 29.4169,16.7485L 27.3795,16.5456L 28.1643,8.66458L 30.5487,8.90202C 34.1012,9.25576 37.1597,9.98993 39.7244,11.1045C 42.2891,12.2192 44.3874,13.57 46.0194,15.157C 47.6515,16.744 48.8209,18.4922 49.5276,20.4017C 50.2344,22.3111 50.4901,24.2472 50.2946,26.21 Z M 36.6372,54.3691C 36.5585,55.1602 36.3336,55.8858 35.9626,56.5461C 35.5916,57.2063 35.1224,57.7738 34.5551,58.2487C 33.9877,58.7236 33.3384,59.0754 32.6072,59.304C 31.8759,59.5327 31.111,59.6073 30.3125,59.5277C 29.5214,59.449 28.7955,59.226 28.1349,58.8587C 27.4743,58.4914 26.9127,58.0191 26.4501,57.4417C 25.9876,56.8642 25.6396,56.2153 25.406,55.4949C 25.1725,54.7744 25.0952,54.0187 25.1739,53.2276C 25.2527,52.4365 25.4776,51.7108 25.8486,51.0506C 26.2196,50.3904 26.6888,49.8228 27.2561,49.3479C 27.8234,48.8731 28.4671,48.5207 29.1872,48.291C 29.9073,48.0612 30.6628,47.9857 31.4539,48.0644C 32.2525,48.144 32.9877,48.3679 33.6595,48.7363C 34.3313,49.1047 34.8985,49.5776 35.361,50.155C 35.8236,50.7324 36.1716,51.3813 36.4051,52.1018C 36.6386,52.8222 36.716,53.578 36.6372,54.3691 Z "/>
</svg>
