<?xml version="1.0" encoding="utf-8"?>
<!DOCTYPE svg PUBLIC "-//W3C//DTD SVG 1.1//EN" "http://www.w3.org/Graphics/SVG/1.1/DTD/svg11.dtd">
<svg xmlns="http://www.w3.org/2000/svg" xmlns:xlink="http://www.w3.org/1999/xlink" version="1.1" baseProfile="full" width="200" height="565" viewBox="0 0 200.00 565.00" enable-background="new 0 0 200.00 565.00" xml:space="preserve">
	<path fill="#DC2C83" fill-opacity="1" fill-rule="evenodd" stroke-linejoin="round" d="M 99.8186,406.826L 99.8186,406.826C 108.931,406.826 116.319,414.214 116.319,423.326L 116.319,484.765C 116.319,493.877 108.931,501.265 99.8186,501.265L 99.8186,501.265C 90.7059,501.265 83.3186,493.877 83.3186,484.765L 83.3186,423.326C 83.3186,414.214 90.7059,406.826 99.8186,406.826 Z M 99.8185,355.027C 154.505,355.027 198.837,399.359 198.837,454.045C 198.837,508.732 154.505,553.064 99.8185,553.064C 45.1321,553.064 0.799998,508.732 0.799998,454.045C 0.799998,399.359 45.132,355.027 99.8185,355.027 Z M 99.8186,386.962C 62.7694,386.962 32.7352,416.996 32.7352,454.045C 32.7352,491.094 62.7695,521.129 99.8186,521.129C 136.868,521.129 166.902,491.094 166.902,454.045C 166.902,416.996 136.868,386.962 99.8186,386.962 Z "/>
	<path fill="#90ED1A" fill-opacity="1" stroke-linejoin="round" d="M 100.31,20.1786L 100.31,20.1786C 109.422,20.1786 116.81,27.5659 116.81,36.6786L 116.81,153.516C 116.81,162.628 109.422,170.016 100.31,170.016L 100.31,170.016C 91.1968,170.016 83.8095,162.628 83.8095,153.516L 83.8095,36.6786C 83.8095,27.5659 91.1968,20.1786 100.31,20.1786 Z "/>
	<path fill="#90ED1A" fill-opacity="1" stroke-linejoin="round" d="M 198.837,125.562C 198.837,180.248 154.505,224.58 99.8186,224.58C 45.1321,224.58 0.800005,180.248 0.800005,125.562C 0.800005,83.1972 27.405,47.0467 64.8186,32.9066L 64.8186,68.3216C 45.5742,80.1138 32.7352,101.338 32.7352,125.562C 32.7352,162.611 62.7694,192.645 99.8185,192.645C 136.868,192.645 166.902,162.611 166.902,125.562C 166.902,101.339 154.063,80.1138 134.819,68.3217L 134.819,32.9067C 172.232,47.0467 198.837,83.1973 198.837,125.562 Z "/>
</svg>
